<svg width="128" height="128" viewBox="0 0 128 128" xmlns="http://www.w3.org/2000/svg">
  <defs>
    <linearGradient id="bg" x1="0" y1="0" x2="1" y2="1">
      <stop offset="0" stop-color="#1D72F8"/>
      <stop offset="1" stop-color="#2EA6FF"/>
    </linearGradient>
  </defs>
  <rect width="128" height="128" rx="28" fill="url(#bg)"/>
  <!-- layered bubble shadows -->
  <path d="M20 46c0-12 10-22 22-22h34c12 0 22 10 22 22v30c0 12-10 22-22 22H58l-14 10v-10H42c-12 0-22-10-22-22V46z" fill="#76C8FF" opacity="0.45"/>
  <path d="M24 48c0-11 9-20 20-20h32c11 0 20 9 20 20v28c0 11-9 20-20 20H58l-12 9v-9H44c-11 0-20-9-20-20V48z" fill="#BFE9FF" opacity="0.65"/>
  <!-- main white chat bubble -->
  <path d="M28 50c0-10 8-18 18-18h30c10 0 18 8 18 18v26c0 10-8 18-18 18H60l-11 8v-8H46c-10 0-18-8-18-18V50z" fill="#FFFFFF"/>
  <!-- face: wink and smile -->
  <circle cx="56" cy="72" r="5" fill="#1976F9"/>
  <rect x="79" y="66" width="12" height="5" rx="2.5" fill="#1976F9"/>
  <path d="M54 86c7 6 23 6 30 0" stroke="#1976F9" stroke-width="3" stroke-linecap="round" fill="none"/>
  <!-- sparkle -->
  <path d="M104 38c0.9-2.2 3.1-3.8 5.6-3.8-2.5 0-4.7-1.6-5.6-3.8-0.9 2.2-3.1 3.8-5.6 3.8 2.5 0 4.7 1.6 5.6 3.8z" fill="#FFFFFF" opacity="0.9"/>
</svg>